<svg width="66" height="79" viewBox="0 0 66 79" fill="none" xmlns="http://www.w3.org/2000/svg">
<path d="M34.2202 2.51059L41.9548 26.8715C42.2026 27.6521 42.7588 28.2975 43.4943 28.6578L64.1611 38.7827C64.9078 39.1485 64.9078 40.2129 64.1611 40.5787L43.4943 50.7037C42.7588 51.064 42.2026 51.7093 41.9548 52.4899L34.2202 76.8508C33.925 77.7807 32.6092 77.7807 32.314 76.8508L24.5794 52.4899C24.3316 51.7093 23.7754 51.064 23.0399 50.7037L2.37309 40.5787C1.62636 40.2129 1.62636 39.1485 2.37309 38.7827L23.0399 28.6578C23.7754 28.2975 24.3316 27.6521 24.5794 26.8715L32.314 2.51059C32.6092 1.58074 33.925 1.58074 34.2202 2.51059Z" fill="#E9F3FF" stroke="#679BFF" stroke-width="2"/>
</svg>
