<svg width="25" height="24" viewBox="0 0 25 24" fill="none" xmlns="http://www.w3.org/2000/svg">
<path d="M8.5 16C8.5 15.4477 8.94772 15 9.5 15H15.5C16.0523 15 16.5 15.4477 16.5 16V20C16.5 20.5523 16.0523 21 15.5 21H9.5C8.94772 21 8.5 20.5523 8.5 20V16Z" stroke="#F9C26F" stroke-width="2" stroke-linecap="round" stroke-linejoin="round"/>
<path d="M6.5 15H18.5" stroke="#F9C26F" stroke-width="2" stroke-linecap="round" stroke-linejoin="round"/>
<path d="M20.6272 3.36686C17.5702 3.07382 11.9999 5.49967 12.4999 14.9995C15.7539 15.0751 21.8333 12.5592 20.6272 3.36686Z" stroke="#F9C26F" stroke-width="2"/>
<path d="M5.50448 6.04545C6.01494 9.14599 6.82209 15.4848 12.5 14.9995C12.5592 12.6385 12.088 4.91343 5.50448 6.04545Z" stroke="#F9C26F" stroke-width="2"/>
</svg>
