<svg width="48" height="48" viewBox="0 0 48 48" fill="none" xmlns="http://www.w3.org/2000/svg">
<path d="M35.8897 39.0177C33.933 39.0177 32.1965 38.5041 30.68 37.4768C29.1636 36.4496 27.9651 35.0554 27.0846 33.2944C26.2041 31.5334 25.7639 29.5767 25.7639 27.4243C25.7639 23.9023 26.9134 20.4536 29.2125 17.0784C31.5606 13.6542 34.8625 10.8414 39.1183 8.64014L47.3363 13.0427C44.5481 14.4124 42.1756 16.0022 40.2189 17.8121C38.3111 19.6221 37.0148 21.7499 36.33 24.1958C38.6291 24.3915 40.4879 25.1008 41.9065 26.3237C43.3741 27.4977 44.1078 29.1364 44.1078 31.2399C44.1078 33.3433 43.3496 35.1777 41.8332 36.7431C40.3656 38.2595 38.3845 39.0177 35.8897 39.0177ZM11.3822 39.0177C9.42552 39.0177 7.68896 38.5041 6.17253 37.4768C4.65609 36.4496 3.45762 35.0554 2.57711 33.2944C1.6966 31.5334 1.25635 29.5767 1.25635 27.4243C1.25635 23.9023 2.4059 20.4536 4.70501 17.0784C7.05304 13.6542 10.3549 10.8414 14.6107 8.64014L22.8288 13.0427C20.0406 14.4124 17.6681 16.0022 15.7114 17.8121C13.8036 19.6221 12.5073 21.7499 11.8225 24.1958C14.1216 24.3915 15.9804 25.1008 17.399 26.3237C18.8665 27.4977 19.6003 29.1364 19.6003 31.2399C19.6003 33.3433 18.8421 35.1777 17.3256 36.7431C15.8581 38.2595 13.877 39.0177 11.3822 39.0177Z" fill="#F9C26F"/>
</svg>
